<svg width="48" height="48" viewBox="0 0 48 48" fill="none" xmlns="http://www.w3.org/2000/svg">
<rect x="1" y="1" width="46" height="46" rx="23" stroke="#FF782D" stroke-width="2"/>
<path fill-rule="evenodd" clip-rule="evenodd" d="M23.1665 17.3333C19.9448 17.3333 17.3332 19.945 17.3332 23.1667C17.3332 26.3883 19.9448 29 23.1665 29C26.3882 29 28.9998 26.3883 28.9998 23.1667C28.9998 19.945 26.3882 17.3333 23.1665 17.3333ZM15.6665 23.1667C15.6665 19.0245 19.0244 15.6667 23.1665 15.6667C27.3086 15.6667 30.6665 19.0245 30.6665 23.1667C30.6665 27.3088 27.3086 30.6667 23.1665 30.6667C19.0244 30.6667 15.6665 27.3088 15.6665 23.1667Z" fill="#FF782D"/>
<path fill-rule="evenodd" clip-rule="evenodd" d="M27.2856 27.2858C27.611 26.9603 28.1387 26.9603 28.4641 27.2858L32.0891 30.9108C32.4145 31.2362 32.4145 31.7638 32.0891 32.0893C31.7637 32.4147 31.236 32.4147 30.9106 32.0893L27.2856 28.4643C26.9601 28.1388 26.9601 27.6112 27.2856 27.2858Z" fill="#FF782D"/>
</svg>
